<?xml version="1.0" standalone="no"?>
<!DOCTYPE svg PUBLIC "-//W3C//DTD SVG 20010904//EN"
 "http://www.w3.org/TR/2001/REC-SVG-20010904/DTD/svg10.dtd">
<svg version="1.0" xmlns="http://www.w3.org/2000/svg"
 width="500.000000pt" height="500.000000pt" viewBox="0 0 500.000000 500.000000"
 preserveAspectRatio="xMidYMid meet">
<metadata>
Created by potrace 1.15, written by Peter Selinger 2001-2017
</metadata>
<g transform="translate(0.000000,500.000000) scale(0.100000,-0.100000)"
fill="#000000" stroke="none">
<path d="M2100 4040 c-28 -28 -25 -64 6 -89 15 -12 32 -21 38 -21 46 0 71 75
37 109 -26 26 -55 27 -81 1z"/>
<path d="M2709 4036 c-34 -75 62 -128 101 -56 19 35 -8 74 -53 78 -31 3 -39
-1 -48 -22z"/>
<path d="M2405 4025 c-49 -17 -81 -53 -95 -106 -10 -36 -8 -47 12 -87 51 -103
160 -122 234 -40 99 108 -13 281 -151 233z"/>
<path d="M2962 4028 c-7 -7 -12 -25 -12 -40 0 -34 41 -59 68 -41 21 12 28 59
11 79 -14 17 -51 18 -67 2z"/>
<path d="M1771 3894 c-55 -39 -57 -111 -4 -166 40 -42 94 -39 139 6 54 54 43
129 -23 165 -31 16 -85 14 -112 -5z"/>
<path d="M2782 3800 c-39 -24 -66 -80 -57 -121 7 -32 54 -76 91 -85 37 -9 74
4 106 38 51 54 31 135 -42 173 -39 20 -59 19 -98 -5z"/>
<path d="M2110 3733 c-37 -48 -8 -103 55 -103 59 0 87 68 45 110 -29 29 -74
26 -100 -7z"/>
<path d="M1588 3679 c-26 -15 -22 -56 7 -75 23 -15 27 -15 50 0 30 19 32 46 7
69 -21 19 -39 21 -64 6z"/>
<path d="M1879 3556 c-53 -36 -78 -106 -56 -158 32 -77 117 -114 184 -82 76
38 104 124 63 192 -43 71 -126 92 -191 48z"/>
<path d="M2433 3520 c-43 -26 -60 -84 -39 -133 18 -45 51 -67 99 -67 31 0 46
7 73 34 55 55 41 136 -30 170 -44 21 -64 20 -103 -4z"/>
<path d="M1541 3484 c-63 -80 43 -181 114 -109 52 51 15 135 -59 135 -25 0
-40 -7 -55 -26z"/>
<path d="M2728 3419 c-35 -20 -11 -75 28 -67 31 6 40 34 20 57 -22 24 -24 24
-48 10z"/>
<path d="M2201 3254 c-51 -64 28 -144 92 -94 18 15 27 31 27 51 0 64 -80 93
-119 43z"/>
<path d="M2980 3245 c-19 -23 -6 -113 24 -173 30 -59 93 -116 150 -136 133
-46 137 -48 152 -79 50 -96 -51 -306 -194 -404 -95 -65 -181 -88 -327 -87
-176 0 -269 27 -465 135 -397 217 -463 250 -567 285 -95 32 -235 43 -313 24
-67 -16 -142 -82 -176 -155 l-23 -50 52 -10 c29 -6 86 -29 127 -50 98 -52 244
-196 319 -315 106 -168 141 -216 211 -292 40 -43 94 -94 121 -114 61 -45 200
-118 254 -134 33 -10 43 -19 58 -53 9 -22 15 -43 12 -45 -12 -12 -156 32 -240
72 -168 80 -319 213 -415 365 -164 258 -207 317 -263 363 -82 65 -169 109
-220 111 l-42 2 1 -145 c1 -175 19 -252 97 -408 57 -114 133 -210 237 -298 72
-60 247 -151 346 -179 59 -16 62 -19 74 -58 25 -86 123 -188 234 -244 40 -20
67 -26 126 -27 l75 -1 3 28 c3 22 -6 39 -38 73 -46 50 -70 99 -70 142 0 25 5
30 31 36 17 3 45 6 61 6 29 0 180 29 187 36 2 2 -18 27 -44 56 -80 89 -140
237 -104 258 23 15 45 -7 68 -67 32 -83 70 -139 148 -213 117 -112 262 -170
428 -170 80 0 141 18 151 45 11 27 -13 63 -55 85 -59 30 -110 78 -149 140 -53
85 -129 158 -204 196 -70 35 -83 55 -48 74 28 15 106 -21 183 -84 l58 -47 47
39 c143 120 271 301 337 477 47 123 66 250 64 426 -1 101 3 164 10 177 14 26
49 45 111 62 48 13 110 52 152 97 53 56 91 179 69 222 -16 28 -34 27 -73 -8
-49 -42 -71 -51 -125 -51 -78 0 -124 -18 -170 -65 l-42 -44 -43 43 c-49 49
-94 66 -180 66 -50 0 -61 4 -107 40 -56 45 -63 47 -81 25z m-1642 -842 c13
-13 25 -46 37 -108 40 -214 147 -408 320 -580 60 -61 124 -120 140 -132 l30
-22 -30 8 c-17 5 -55 21 -85 36 -269 135 -453 414 -467 708 -6 103 -5 107 14
107 12 0 30 -8 41 -17z m261 -277 c167 -297 394 -498 643 -569 47 -14 112 -29
143 -32 83 -11 48 -25 -60 -25 -269 0 -497 125 -695 380 -75 97 -173 314 -193
430 l-6 35 57 -61 c31 -34 81 -105 111 -158z m648 -98 c13 -12 23 -30 23 -41
0 -28 -29 -57 -57 -57 -28 0 -63 33 -63 60 0 24 34 60 57 60 9 0 27 -10 40
-22z"/>
<path d="M1554 3200 c-11 -4 -33 -22 -47 -40 -84 -100 37 -245 154 -185 35 19
69 70 69 105 0 84 -99 151 -176 120z"/>
<path d="M1923 3150 c-25 -10 -43 -39 -43 -70 0 -29 44 -70 75 -70 31 0 75 41
75 70 0 24 -51 80 -72 79 -7 0 -23 -4 -35 -9z"/>
</g>
</svg>
